<?xml version="1.0" encoding="iso-8859-1"?>
<!-- Generator: Adobe Illustrator 19.0.0, SVG Export Plug-In . SVG Version: 6.00 Build 0)  -->
<svg version="1.1" id="Capa_1" xmlns="http://www.w3.org/2000/svg" xmlns:xlink="http://www.w3.org/1999/xlink" x="0px" y="0px"
	 viewBox="0 0 512 512" style="enable-background:new 0 0 512 512;" xml:space="preserve">
<g>
	<path style="fill:#CBB292;" d="M407.526,97.103v361.931c-0.029,9.739-7.916,17.627-17.655,17.655H51.509
		c-4.683,0.001-9.174-1.858-12.485-5.17s-5.171-7.803-5.17-12.485V17.655c-0.001-4.683,1.858-9.174,5.17-12.486
		S46.826-0.001,51.509,0h258.913L407.526,97.103z"/>
	<path style="fill:#7F6E5D;" d="M407.526,97.103h-79.448c-9.739-0.029-17.627-7.916-17.655-17.655V0L407.526,97.103z"/>
	<path style="fill:#ECF0F1;" d="M98.56,61.793h17.655c9.751,0,17.655,7.904,17.655,17.655v17.655
		c0,9.751-7.904,17.655-17.655,17.655H98.56c-9.751,0-17.655-7.904-17.655-17.655V79.448C80.905,69.698,88.809,61.793,98.56,61.793z
		"/>
	<path style="fill:#5E5F62;" d="M186.836,61.793h70.621c9.751,0,17.655,7.904,17.655,17.655l0,0c0,9.751-7.904,17.655-17.655,17.655
		h-70.621c-9.751,0-17.655-7.904-17.655-17.655l0,0C169.181,69.698,177.085,61.793,186.836,61.793z"/>
	<path style="fill:#ECF0F1;" d="M98.56,150.069h17.655c9.751,0,17.655,7.904,17.655,17.655v17.655
		c0,9.751-7.904,17.655-17.655,17.655H98.56c-9.751,0-17.655-7.904-17.655-17.655v-17.655
		C80.905,157.973,88.809,150.069,98.56,150.069z"/>
	<path style="fill:#5E5F62;" d="M186.836,150.069H354.56c9.751,0,17.655,7.904,17.655,17.655l0,0
		c0,9.751-7.905,17.655-17.655,17.655H186.836c-9.751,0-17.655-7.904-17.655-17.655l0,0
		C169.181,157.973,177.085,150.069,186.836,150.069z"/>
	<path style="fill:#ECF0F1;" d="M98.56,238.345h17.655c9.751,0,17.655,7.904,17.655,17.655v17.655
		c0,9.751-7.904,17.655-17.655,17.655H98.56c-9.751,0-17.655-7.904-17.655-17.655V256C80.905,246.249,88.809,238.345,98.56,238.345z
		"/>
	<path style="fill:#5E5F62;" d="M287.647,238.345H186.836c-9.722,0.07-17.585,7.934-17.655,17.655
		c0.029,9.739,7.916,17.627,17.655,17.655h47.492"/>
	<path style="fill:#ECF0F1;" d="M98.56,326.621h17.655c9.751,0,17.655,7.904,17.655,17.655v17.655
		c0,9.751-7.904,17.655-17.655,17.655H98.56c-9.751,0-17.655-7.905-17.655-17.655v-17.655
		C80.905,334.525,88.809,326.621,98.56,326.621z"/>
	<path style="fill:#5E5F62;" d="M202.726,326.621h-15.89c-9.722,0.07-17.585,7.934-17.655,17.655
		c0.029,9.739,7.916,17.627,17.655,17.655h9.092"/>
	<circle style="fill:#D25627;" cx="336.905" cy="370.759" r="141.241"/>
	<circle style="fill:#ECF0F1;" cx="336.905" cy="370.759" r="105.931"/>
	<path style="fill:#5E5F62;" d="M381.043,423.724c-2.342,0.003-4.588-0.928-6.241-2.586L330.664,377
		c-1.656-1.655-2.586-3.9-2.586-6.241v-70.621c0-4.875,3.952-8.828,8.828-8.828s8.828,3.952,8.828,8.828v66.966l41.551,41.551
		c2.524,2.525,3.279,6.321,1.913,9.619C387.831,421.573,384.613,423.724,381.043,423.724z"/>
</g>
<g>
</g>
<g>
</g>
<g>
</g>
<g>
</g>
<g>
</g>
<g>
</g>
<g>
</g>
<g>
</g>
<g>
</g>
<g>
</g>
<g>
</g>
<g>
</g>
<g>
</g>
<g>
</g>
<g>
</g>
</svg>
